<svg xmlns="http://www.w3.org/2000/svg" version="1.1" xmlns:xlink="http://www.w3.org/1999/xlink" xmlns:svgjs="http://svgjs.dev/svgjs" width="100%" height="100%" viewBox="0 0 1000 600"><rect width="1000" height="600" x="0" y="0" fill="#ffffff"/><g><rect width="333.3333333333333" height="333.3333333333333" rx="13.333333333333334" ry="13.333333333333334" y="348.6003814571699" fill="#af0000" transform="matrix(0.38299120117610214,0,0,0.38299120117610214,-16.34758273900379,102.65722371371861)" x="395.5570373535156"/><path d="M463.1779088378184 509.6690832541581L462.47816334508184 514.2492355702518Q462.03287075879496 516.0622125287057 461.5875781725081 519.2746804726326L461.5875781725081 519.2746804726326L371.5748625159434 509.6690832541581L463.1779088378184 509.6690832541581ZM369.06214006475307 531.6474530487469L459.9654408938915 531.6474530487469Q459.2975020144612 536.8955442442709 459.2975020144612 541.2530502672213L459.2975020144612 541.2530502672213L369.06214006475307 531.6474530487469ZM377.0774066179171 487.65890684626316L468.68045293979213 487.65890684626316L465.91327758215215 497.0736643849003L377.0774066179171 487.65890684626316ZM372.02015510223026 553.6258228433356L459.52014830760464 553.6258228433356Q460.44254009348464 560.0507587311894 461.11047897291496 563.23142006181L461.11047897291496 563.23142006181L372.02015510223026 553.6258228433356ZM387.828041915415 465.6805370516744L478.06340386512306 465.6805370516744Q474.85093592119625 471.62837373993506 473.4832515490293 474.8408416838619L473.4832515490293 474.8408416838619L387.828041915415 465.6805370516744ZM394.0303315101252 575.8268389310679L466.39037678174526 575.8268389310679Q469.34839181922246 581.1067367398981 473.2606052558859 584.319204683825L473.2606052558859 584.319204683825L394.0303315101252 575.8268389310679ZM419.4438155417843 443.70216725708565L499.8191273665684 443.70216725708565Q493.17154518557123 447.8370269868925 489.5137846553575 451.2721412239628L489.5137846553575 451.2721412239628L419.4438155417843 443.70216725708565ZM519.9845202027034 590.2670413720856L519.9845202027034 590.2670413720856Q491.1041153206678 590.2670413720856 478.6359229046348 579.0393068749947Q466.1677304886018 567.8115723779038 466.1677304886018 544.4655182111482L466.1677304886018 544.4655182111482Q466.1677304886018 534.6054680862242 469.34839181922246 515.3942736492753L469.34839181922246 515.3942736492753Q476.2186202933631 475.98587976288536 493.0761253456526 458.14236969810344Q509.9018237846359 440.26705302001534 546.3203960202425 440.26705302001534L546.3203960202425 440.26705302001534Q554.7809551596935 440.26705302001534 565.658816910416 441.98461013855047Q576.5366786611388 443.70216725708565 581.5621235635194 446.21488970827596L581.5621235635194 446.21488970827596L568.7440584011181 481.26577757171566Q555.2262477459803 478.0533096277888 543.4578008226839 478.0533096277888Q531.6575472860812 478.0533096277888 526.6002957703944 480.34338578583566Q521.5748508680138 482.63346194388254 520.4298127889903 489.50369041802315L520.4298127889903 489.50369041802315L509.9018237846359 549.4909631135288Q518.1397366309434 551.3357466852888 526.854748676844 551.3357466852888L526.854748676844 551.3357466852888Q545.3980042343625 551.3357466852888 560.7287918479541 545.833202583315L560.7287918479541 545.833202583315L557.0710313177403 584.319204683825Q542.408182583579 590.2670413720856 519.9845202027034 590.2670413720856ZM634.0112289054541 497.9642495574741L634.0112289054541 497.9642495574741L536.9056384816054 487.65890684626316L635.6333661840706 487.65890684626316Q634.4883281050472 492.2390591623569 634.0112289054541 497.9642495574741ZM543.3305743694591 465.6805370516744L641.8038491654747 465.6805370516744L638.3687349284044 475.7632334697419L543.3305743694591 465.6805370516744ZM538.9730683465087 509.6690832541581L634.0112289054541 509.6690832541581Q634.4883281050472 515.8395662355622 635.8560124772141 519.974425965369L635.8560124772141 519.974425965369L538.9730683465087 509.6690832541581ZM666.0722951181103 541.9527957599578L666.0722951181103 541.9527957599578L544.9209050347694 531.6474530487469L643.6486327372346 531.6474530487469Q651.1868000908056 538.9629741091744 666.0722951181103 541.9527957599578ZM560.5061455548106 443.70216725708565L658.9794203508263 443.70216725708565Q653.699522541996 447.13728149415596 648.8967239327587 453.08511818241664L648.8967239327587 453.08511818241664L560.5061455548106 443.70216725708565ZM623.2605936079563 563.7085192614031L541.0404982114121 553.6258228433356L626.6957078450266 553.6258228433356L623.2605936079563 563.7085192614031ZM615.9132659342225 585.9095353491354L537.160091388055 575.8268389310679L619.3483801712928 575.8268389310679L615.9132659342225 585.9095353491354ZM623.7058861942431 584.319204683825L636.5239513566444 546.5329480760515Q655.7669524068995 551.7810392715758 671.7020656733089 551.7810392715758Q687.6053723264122 551.7810392715758 697.6880687444798 550.4133548994088L697.6880687444798 550.4133548994088L699.5010457029334 538.9629741091744L680.5124975591282 537.1499971507207Q658.7567740576828 535.0825672858173 649.6918892654139 527.2899470257967Q640.6588110864512 519.4973267657759 640.6588110864512 505.3115772312078L640.6588110864512 505.3115772312078Q640.6588110864512 499.1092876364976 642.0264954586181 491.5711202829266L642.0264954586181 491.5711202829266Q647.3063932674485 462.2454228146041 661.2694965088731 451.2721412239628Q675.2325997502978 440.26705302001534 704.2084244722521 440.26705302001534Q733.1842491942064 440.26705302001534 755.3852652819385 445.9922434151325L755.3852652819385 445.9922434151325L743.4895919054172 482.63346194388254Q723.5468453624258 479.1983477068122 711.5239455326796 479.1983477068122Q699.5010457029334 479.1983477068122 690.817840270339 480.34338578583566L690.817840270339 480.34338578583566L688.9730566985791 491.5711202829266L704.3356509254768 493.1614509482369Q727.6817050922325 495.6741733994272 737.5417552171566 504.261958992103Q747.3699987287744 512.8497445847788 747.3699987287744 527.2899470257967L747.3699987287744 527.2899470257967Q747.3699987287744 541.9527957599578 741.1995157473702 557.5062296666929L741.1995157473702 557.5062296666929Q737.7644015103001 565.521496219857 733.9794145268615 570.928620481912Q730.1944275434228 576.303938130661 724.3738173083871 580.0889251140995Q718.521400460045 583.8421054842319 713.7186018508078 585.8141155092168Q708.9158032415708 587.7543189208953 701.3458292746934 588.6767107067753L701.3458292746934 588.6767107067753Q690.817840270339 590.2670413720856 675.2325997502978 590.2670413720856L675.2325997502978 590.2670413720856Q646.8292940678554 590.2670413720856 623.7058861942431 584.319204683825L623.7058861942431 584.319204683825Z " fill="#ffffff" transform="matrix(0.38299120117610214,0,0,0.38299120117610214,-16.34758273900379,102.65722371371861)"/><path d="M906.339468896412 509.6690832541581L905.6397234036754 514.2492355702518Q905.1944308173886 516.0622125287057 904.7491382311016 519.2746804726326L904.7491382311016 519.2746804726326L814.7364225745371 509.6690832541581L906.339468896412 509.6690832541581ZM812.2237001233466 531.6474530487469L903.1270009524851 531.6474530487469Q902.4590620730548 536.8955442442709 902.4590620730548 541.2530502672213L902.4590620730548 541.2530502672213L812.2237001233466 531.6474530487469ZM820.2389666765107 487.65890684626316L911.8420129983858 487.65890684626316L909.0748376407457 497.0736643849003L820.2389666765107 487.65890684626316ZM815.1817151608238 553.6258228433356L902.6817083661982 553.6258228433356Q903.6041001520782 560.0507587311894 904.2720390315085 563.23142006181L904.2720390315085 563.23142006181L815.1817151608238 553.6258228433356ZM830.9896019740086 465.6805370516744L921.2249639237166 465.6805370516744Q918.0124959797897 471.62837373993506 916.6448116076228 474.8408416838619L916.6448116076228 474.8408416838619L830.9896019740086 465.6805370516744ZM837.1918915687188 575.8268389310679L909.5519368403388 575.8268389310679Q912.5099518778161 581.1067367398981 916.4221653144796 584.319204683825L916.4221653144796 584.319204683825L837.1918915687188 575.8268389310679ZM862.6053756003779 443.70216725708565L942.9806874251619 443.70216725708565Q936.3331052441649 447.8370269868925 932.6753447139511 451.2721412239628L932.6753447139511 451.2721412239628L862.6053756003779 443.70216725708565ZM963.1460802612969 590.2670413720856L963.1460802612969 590.2670413720856Q934.2656753792614 590.2670413720856 921.7974829632285 579.0393068749947Q909.3292905471953 567.8115723779038 909.3292905471953 544.4655182111482L909.3292905471953 544.4655182111482Q909.3292905471953 534.6054680862242 912.5099518778161 515.3942736492753L912.5099518778161 515.3942736492753Q919.3801803519566 475.98587976288536 936.2376854042461 458.14236969810344Q953.0633838432295 440.26705302001534 989.481956078836 440.26705302001534L989.481956078836 440.26705302001534Q997.9425152182871 440.26705302001534 1008.8203769690097 441.98461013855047Q1019.6982387197324 443.70216725708565 1024.723683622113 446.21488970827596L1024.723683622113 446.21488970827596L1011.9056184597116 481.26577757171566Q998.3878078045739 478.0533096277888 986.6193608812775 478.0533096277888Q974.8191073446749 478.0533096277888 969.761855828988 480.34338578583566Q964.7364109266073 482.63346194388254 963.5913728475839 489.50369041802315L963.5913728475839 489.50369041802315L953.0633838432295 549.4909631135288Q961.3012966895369 551.3357466852888 970.0163087354376 551.3357466852888L970.0163087354376 551.3357466852888Q988.5595642929561 551.3357466852888 1003.8903519065477 545.833202583315L1003.8903519065477 545.833202583315L1000.2325913763339 584.319204683825Q985.5697426421727 590.2670413720856 963.1460802612969 590.2670413720856ZM1134.6473392083628 463.3904608936275L1134.6473392083628 463.3904608936275Q1159.3928843605916 463.3904608936275 1169.9208733649461 472.9006382721833Q1180.4488623693005 482.4108156507391 1180.4488623693005 502.54440187356784L1180.4488623693005 502.54440187356784Q1180.4488623693005 512.4044519984919 1177.9361399181103 526.3675552399166L1177.9361399181103 526.3675552399166Q1172.210949522993 559.3510132384529 1157.8025536952814 574.459154558901Q1143.3623512542636 589.5672958793491 1112.4463231206307 589.5672958793491L1112.4463231206307 589.5672958793491Q1088.1778771679951 589.5672958793491 1077.8725344567843 580.0889251140995Q1067.5671917455732 570.5787477355437 1067.5671917455732 550.6360011925523L1067.5671917455732 550.6360011925523Q1067.5671917455732 540.3306584813413 1070.0799141967636 526.3675552399166L1070.0799141967636 526.3675552399166Q1075.8051045918808 493.38409724138035 1089.990854126449 478.40318237415704Q1104.2084102743233 463.3904608936275 1134.6473392083628 463.3904608936275ZM1105.5760946464902 554.7708609223591L1119.093905301628 554.7708609223591Q1125.7414874826252 554.7708609223591 1129.0493752664706 553.1805302570488Q1132.357263050316 551.5583929784323 1133.5023011293395 546.0558488764584L1133.5023011293395 546.0558488764584L1142.2173131752402 498.21870246392376L1128.2542099338154 498.21870246392376Q1121.8292740459617 498.21870246392376 1118.2987399689728 499.8090331292341Q1114.7363992786777 501.3993637945444 1114.036653785941 506.6792616033747L1114.036653785941 506.6792616033747L1105.5760946464902 554.7708609223591ZM970.6842476148679 531.6474530487469L1062.0646476435995 531.6474530487469Q1061.1422558577196 538.7403278160309 1060.9196095645761 541.2530502672213L1060.9196095645761 541.2530502672213L970.6842476148679 531.6474530487469ZM974.8191073446749 509.6690832541581L1066.4221536665498 509.6690832541581L1064.3547238016463 519.2746804726326L974.8191073446749 509.6690832541581ZM971.606639400748 553.6258228433356L1060.6969632714327 553.6258228433356Q1060.6969632714327 557.2835833735494 1061.6193550573125 563.23142006181L1061.6193550573125 563.23142006181L971.606639400748 553.6258228433356ZM983.9794119768624 487.65890684626316L1074.4374202197139 487.65890684626316Q1071.6702448620738 493.63855014783 1070.5252067830504 496.81921147845065L1070.5252067830504 496.81921147845065L983.9794119768624 487.65890684626316ZM991.5175793304334 575.8268389310679L1065.49976188067 575.8268389310679Q1068.2351306250036 581.3293830330416 1071.4475985689305 584.319204683825L1071.4475985689305 584.319204683825L991.5175793304334 575.8268389310679ZM1014.6727938173517 465.6805370516744L1094.3483601493992 465.6805370516744Q1088.8458160474254 468.89300499560125 1084.9654092240683 473.2505110185516L1084.9654092240683 473.2505110185516L1014.6727938173517 465.6805370516744ZM1308.470480926782 463.3904608936275L1308.470480926782 463.3904608936275Q1333.2160260790108 463.3904608936275 1343.7440150833652 472.9006382721833Q1354.2720040877196 482.4108156507391 1354.2720040877196 502.54440187356784L1354.2720040877196 502.54440187356784Q1354.2720040877196 512.4044519984919 1351.7592816365293 526.3675552399166L1351.7592816365293 526.3675552399166Q1346.034091241412 559.3510132384529 1331.5938888003943 574.459154558901Q1317.1854929726826 589.5672958793491 1286.26946483905 589.5672958793491L1286.26946483905 589.5672958793491Q1262.0010188864142 589.5672958793491 1251.6956761752033 580.0889251140995Q1241.3903334639922 570.5787477355437 1241.3903334639922 550.6360011925523L1241.3903334639922 550.6360011925523Q1241.3903334639922 540.3306584813413 1243.9030559151827 526.3675552399166L1243.9030559151827 526.3675552399166Q1249.6282463102998 493.38409724138035 1263.813995844868 478.40318237415704Q1278.0315519927424 463.3904608936275 1308.470480926782 463.3904608936275ZM1279.3992363649093 554.7708609223591L1292.917047020047 554.7708609223591Q1299.5328225877379 554.7708609223591 1302.8725169848897 553.1805302570488Q1306.1804047687351 551.5583929784323 1307.3254428477587 546.0558488764584L1307.3254428477587 546.0558488764584L1316.0404548936592 498.21870246392376L1302.0773516522345 498.21870246392376Q1295.6524157643807 498.21870246392376 1292.0900750740857 499.8090331292341Q1288.5595409970967 501.3993637945444 1287.8597955043601 506.6792616033747L1287.8597955043601 506.6792616033747L1279.3992363649093 554.7708609223591ZM1144.507389333287 531.6474530487469L1235.8877893620186 531.6474530487469Q1234.9653975761387 538.7403278160309 1234.7427512829952 541.2530502672213L1234.7427512829952 541.2530502672213L1144.507389333287 531.6474530487469ZM1148.642249063094 509.6690832541581L1240.2452953849688 509.6690832541581L1238.1778655200656 519.2746804726326L1148.642249063094 509.6690832541581ZM1145.429781119167 553.6258228433356L1234.5201049898517 553.6258228433356Q1234.5201049898517 557.2835833735494 1235.4106901624255 563.23142006181L1235.4106901624255 563.23142006181L1145.429781119167 553.6258228433356ZM1157.8025536952814 487.65890684626316L1248.260561938133 487.65890684626316Q1245.493386580493 493.63855014783 1244.3483485014694 496.81921147845065L1244.3483485014694 496.81921147845065L1157.8025536952814 487.65890684626316ZM1165.3407210488524 575.8268389310679L1239.322903599089 575.8268389310679Q1242.0582723434227 581.3293830330416 1245.2707402873496 584.319204683825L1245.2707402873496 584.319204683825L1165.3407210488524 575.8268389310679ZM1188.4641289224646 465.6805370516744L1268.1715018678183 465.6805370516744Q1262.6689577658444 468.89300499560125 1258.7885509424873 473.2505110185516L1258.7885509424873 473.2505110185516L1188.4641289224646 465.6805370516744ZM1492.8216116495555 553.1805302570488L1486.8737749612947 586.8319271350153L1412.4462998247714 586.8319271350153L1433.50227783348 465.6805370516744L1473.83306350575 465.6805370516744L1458.4704692788523 553.1805302570488L1492.8216116495555 553.1805302570488ZM1406.7211094296542 575.8268389310679L1404.8763258578942 586.1321816422789L1307.8025420473516 575.8268389310679L1406.7211094296542 575.8268389310679ZM1414.5137296896748 531.6474530487469L1412.6689461179146 541.9527957599578L1315.563355694066 531.6474530487469L1414.5137296896748 531.6474530487469ZM1418.394136513032 509.6690832541581L1416.5811595545783 519.974425965369L1319.4755691307296 509.6690832541581L1418.394136513032 509.6690832541581ZM1422.3063499496955 487.65890684626316L1420.4615663779355 497.9642495574741L1323.3559759540867 487.65890684626316L1422.3063499496955 487.65890684626316ZM1425.9641104799093 465.6805370516744L1424.3419732012926 475.98587976288536L1327.2681893907502 465.6805370516744L1425.9641104799093 465.6805370516744ZM1410.6015162530114 553.6258228433356L1408.7885392945577 563.9311655545466L1311.682948870709 553.6258228433356L1410.6015162530114 553.6258228433356ZM1554.6536679168212 497.9642495574741L1554.6536679168212 497.9642495574741L1457.5480774929724 487.65890684626316L1556.2758051954377 487.65890684626316Q1555.1307671164143 492.2390591623569 1554.6536679168212 497.9642495574741ZM1463.9730133808262 465.6805370516744L1562.4462881768418 465.6805370516744L1559.0111739397714 475.7632334697419L1463.9730133808262 465.6805370516744ZM1459.6155073578757 509.6690832541581L1554.6536679168212 509.6690832541581Q1555.1307671164143 515.8395662355622 1556.498451488581 519.974425965369L1556.498451488581 519.974425965369L1459.6155073578757 509.6690832541581ZM1586.7147341294772 541.9527957599578L1586.7147341294772 541.9527957599578L1465.5633440461365 531.6474530487469L1564.2910717486018 531.6474530487469Q1571.8292391021728 538.9629741091744 1586.7147341294772 541.9527957599578ZM1481.1485845661778 443.70216725708565L1579.6218593621934 443.70216725708565Q1574.341961553363 447.13728149415596 1569.539162944126 453.08511818241664L1569.539162944126 453.08511818241664L1481.1485845661778 443.70216725708565ZM1543.9030326193233 563.7085192614031L1461.6829372227792 553.6258228433356L1547.3381468563935 553.6258228433356L1543.9030326193233 563.7085192614031ZM1536.5557049455897 585.9095353491354L1457.8025303994218 575.8268389310679L1539.9908191826598 575.8268389310679L1536.5557049455897 585.9095353491354ZM1544.34832520561 584.319204683825L1557.1663903680114 546.5329480760515Q1576.4093914182665 551.7810392715758 1592.344504684676 551.7810392715758Q1608.2478113377792 551.7810392715758 1618.3305077558466 550.4133548994088L1618.3305077558466 550.4133548994088L1620.1434847143005 538.9629741091744L1601.1549365704952 537.1499971507207Q1579.39921306905 535.0825672858173 1570.334328276781 527.2899470257967Q1561.3012500978184 519.4973267657759 1561.3012500978184 505.3115772312078L1561.3012500978184 505.3115772312078Q1561.3012500978184 499.1092876364976 1562.668934469985 491.5711202829266L1562.668934469985 491.5711202829266Q1567.9488322788156 462.2454228146041 1581.9119355202401 451.2721412239628Q1595.8750387616649 440.26705302001534 1624.8508634836192 440.26705302001534Q1653.8266882055734 440.26705302001534 1676.0277042933053 445.9922434151325L1676.0277042933053 445.9922434151325L1664.132030916784 482.63346194388254Q1644.1892843737926 479.1983477068122 1632.1663845440467 479.1983477068122Q1620.1434847143005 479.1983477068122 1611.460279281706 480.34338578583566L1611.460279281706 480.34338578583566L1609.6154957099461 491.5711202829266L1624.9780899368438 493.1614509482369Q1648.3241441035996 495.6741733994272 1658.1841942285234 504.261958992103Q1668.0124377401414 512.8497445847788 1668.0124377401414 527.2899470257967L1668.0124377401414 527.2899470257967Q1668.0124377401414 541.9527957599578 1661.8419547587373 557.5062296666929L1661.8419547587373 557.5062296666929Q1658.4068405216672 565.521496219857 1654.6218535382286 570.928620481912Q1650.83686655479 576.303938130661 1645.0162563197541 580.0889251140995Q1639.163839471412 583.8421054842319 1634.3610408621748 585.8141155092168Q1629.5582422529374 587.7543189208953 1621.9882682860605 588.6767107067753L1621.9882682860605 588.6767107067753Q1611.460279281706 590.2670413720856 1595.8750387616649 590.2670413720856L1595.8750387616649 590.2670413720856Q1567.4717330792223 590.2670413720856 1544.34832520561 584.319204683825L1544.34832520561 584.319204683825ZM1828.0951225102792 465.6805370516744L1821.924639528875 500.0316794223775L1797.1790943766464 500.0316794223775L1782.0709530561983 586.8319271350153L1741.7719739972345 586.8319271350153L1756.8801153176828 500.0316794223775L1731.4666312860236 500.0316794223775L1737.6371142674277 465.6805370516744L1828.0951225102792 465.6805370516744ZM1736.7147224815476 575.8268389310679L1734.901745523094 586.1321816422789L1637.7961550992452 575.8268389310679L1736.7147224815476 575.8268389310679ZM1744.5073427415682 531.6474530487469L1742.6625591698084 541.9527957599578L1645.5887753592658 531.6474530487469L1744.5073427415682 531.6474530487469ZM1748.3877495649253 509.6690832541581L1746.5747726064717 519.974425965369L1649.469182182623 509.6690832541581L1748.3877495649253 509.6690832541581ZM1726.4093797703367 487.65890684626316L1724.5964028118829 497.9642495574741L1627.490812388034 487.65890684626316L1726.4093797703367 487.65890684626316ZM1730.0671403005504 465.6805370516744L1728.47680963524 475.98587976288536L1631.3712192113915 465.6805370516744L1730.0671403005504 465.6805370516744ZM1740.626935918211 553.6258228433356L1738.782152346451 563.9311655545466L1641.6765619226026 553.6258228433356L1740.626935918211 553.6258228433356ZM1972.369920467232 586.8319271350153L1932.293587701412 586.8319271350153L1931.371195915532 568.2886715774969L1902.5225976468028 568.2886715774969L1895.4297228795185 586.8319271350153L1855.7986826999854 586.8319271350153L1906.6574573766097 465.6805370516744L1963.4322621281885 465.6805370516744L1972.369920467232 586.8319271350153ZM1914.6727239297734 535.527859872104L1931.371195915532 535.527859872104L1931.371195915532 500.7314249151141L1928.158727971605 500.7314249151141L1914.6727239297734 535.527859872104ZM1852.8406676625077 575.8268389310679L1848.4831616395577 585.9095353491354L1754.5900391596358 575.8268389310679L1852.8406676625077 575.8268389310679ZM1862.2236185878387 553.6258228433356L1857.8661125648887 563.7085192614031L1763.9729900849668 553.6258228433356L1862.2236185878387 553.6258228433356ZM1871.3839232200266 531.6474530487469L1867.2490634902197 541.7301494668144L1773.3559410102976 531.6474530487469L1871.3839232200266 531.6474530487469ZM1880.7668741453572 509.6690832541581L1876.4093681224072 519.7199730589194L1782.7388919356285 509.6690832541581L1880.7668741453572 509.6690832541581ZM1889.9271787775447 487.65890684626316L1885.7923190477381 497.74160326433065L1792.1536494742659 487.65890684626316L1889.9271787775447 487.65890684626316ZM1899.0874834097326 465.6805370516744L1894.9526236799256 475.5405871765985L1801.5366003995969 465.6805370516744L1899.0874834097326 465.6805370516744ZM2134.265582195824 586.8319271350153L2103.1269077690476 586.8319271350153L2079.558207309148 541.4756965603647L2078.635815523269 541.4756965603647L2070.6205489701047 586.8319271350153L2032.1345468695945 586.8319271350153L2053.2223314916096 465.6805370516744L2084.3610059183857 465.6805370516744L2108.1841592847345 510.81412133318156L2109.5518436569014 510.81412133318156L2117.344463916922 465.6805370516744L2155.5760131109823 465.6805370516744L2134.265582195824 586.8319271350153ZM2026.4093564744776 575.8268389310679L2024.5963795160237 586.1321816422789L1927.490789092175 575.8268389310679L2026.4093564744776 575.8268389310679ZM2034.2019767344977 531.6474530487469L2032.357193162738 541.9527957599578L1935.2834093521956 531.6474530487469L2034.2019767344977 531.6474530487469ZM2038.0823835578553 509.6690832541581L2036.2694065994015 519.974425965369L1939.1638161755527 509.6690832541581L2038.0823835578553 509.6690832541581ZM2041.9945969945184 487.65890684626316L2040.1498134227586 497.9642495574741L1943.0442229989098 487.65890684626316L2041.9945969945184 487.65890684626316ZM2045.6523575247325 465.6805370516744L2044.062026859422 475.98587976288536L1946.9564364355733 465.6805370516744L2045.6523575247325 465.6805370516744ZM2030.3215699111406 553.6258228433356L2028.4767863393809 563.9311655545466L1931.371195915532 553.6258228433356L2030.3215699111406 553.6258228433356ZM2229.3037427547692 465.6805370516744L2280.830456310824 465.6805370516744Q2305.7986477561963 465.6805370516744 2316.581089667 474.6181953907185Q2327.3317249644983 483.55585372976253 2327.3317249644983 503.2441473663044L2327.3317249644983 503.2441473663044Q2327.3317249644983 512.6270982916353 2324.8190025133076 526.3675552399166L2324.8190025133076 526.3675552399166Q2319.0938121181903 558.9057206521659 2305.003482423541 572.8688238935906Q2290.9131527288914 586.8319271350153 2259.551832008972 586.8319271350153L2259.551832008972 586.8319271350153L2208.2477647460605 586.8319271350153L2229.3037427547692 465.6805370516744ZM2275.3597188221565 499.1092876364976L2275.3597188221565 499.1092876364976L2262.064554460162 499.1092876364976L2252.4589572416876 554.0711154296225L2265.7223149903757 554.0711154296225Q2272.369897171373 554.0711154296225 2275.932237861668 552.3535583110873Q2279.462771938657 550.6360011925523 2280.385163724537 545.3879099970281L2280.385163724537 545.3879099970281L2287.0327459055343 507.6016533892547Q2287.255392198678 506.6792616033747 2287.255392198678 503.94389285904094L2287.255392198678 503.94389285904094Q2287.255392198678 499.1092876364976 2275.3597188221565 499.1092876364976ZM2202.522574350943 575.8268389310679L2200.6777907791834 586.1321816422789L2103.6040069686405 575.8268389310679L2202.522574350943 575.8268389310679ZM2210.3151946109638 531.6474530487469L2208.470411039204 541.9527957599578L2111.3648206153553 531.6474530487469L2210.3151946109638 531.6474530487469ZM2214.195601434321 509.6690832541581L2212.3826244758675 519.974425965369L2115.2770340520187 509.6690832541581L2214.195601434321 509.6690832541581ZM2218.1078148709844 487.65890684626316L2216.2630312992246 497.9642495574741L2119.157440875376 487.65890684626316L2218.1078148709844 487.65890684626316ZM2221.7655754011985 465.6805370516744L2220.1434381225818 475.98587976288536L2123.0696543120393 465.6805370516744L2221.7655754011985 465.6805370516744ZM2206.4029811743003 553.6258228433356L2204.5900042158464 563.9311655545466L2107.484413791998 553.6258228433356L2206.4029811743003 553.6258228433356Z " fill="#af0000" transform="matrix(0.38299120117610214,0,0,0.38299120117610214,-16.34758273900379,102.65722371371861)"/></g></svg>